<svg id="Слой_1" data-name="Слой 1" xmlns="http://www.w3.org/2000/svg" viewBox="0 0 612 700.28"><defs><style>.cls-1{fill:#fff}.cls-2{fill:#e6ebf2}.cls-3{fill:#aaadb3}.cls-4{fill:#b6b9bf}.cls-5{fill:#dadee6}.cls-6{fill:#e04343}.cls-7{fill:#d9d100}.cls-8{fill:#21aa34}</style></defs><title>home-prototype</title><path class="cls-1" d="M0 0h612v700.28H0z"/><path class="cls-2" d="M0 229.78h612v140.1H0zM0 0h612v18.13H0z"/><circle class="cls-3" cx="42.44" cy="40.18" r="14.43"/><rect class="cls-2" x="62" y="31.45" width="50" height="7" rx="3.5" ry="3.5"/><rect class="cls-2" x="62.5" y="43.45" width="65" height="5" rx="2.5" ry="2.5"/><rect class="cls-2" x="291.5" y="36.17" width="47" height="7" rx="3.5" ry="3.5"/><rect class="cls-2" x="355.41" y="36.17" width="47" height="7" rx="3.5" ry="3.5"/><rect class="cls-2" x="419.61" y="36.17" width="47" height="7" rx="3.5" ry="3.5"/><rect class="cls-2" x="483.12" y="36.17" width="47" height="7" rx="3.5" ry="3.5"/><rect class="cls-2" x="557.98" y="30.71" width="25.5" height="4" rx="2" ry="2"/><rect class="cls-2" x="557.98" y="37.35" width="25.5" height="4" rx="2" ry="2"/><rect class="cls-2" x="557.98" y="43.99" width="25.5" height="4" rx="2" ry="2"/><rect class="cls-2" x="74.81" y="88.42" width="190" height="115" rx="6" ry="6"/><rect class="cls-4" x="292.21" y="97.39" width="160.16" height="20" rx="5" ry="5"/><rect class="cls-2" x="292.21" y="138.74" width="205.9" height="9.59" rx="4.8" ry="4.8"/><rect class="cls-2" x="292.21" y="161.8" width="244.98" height="9.59" rx="4.8" ry="4.8"/><rect class="cls-2" x="292.21" y="184.87" width="244.98" height="9.59" rx="4.8" ry="4.8"/><circle class="cls-4" cx="154.06" cy="282.25" r="15.5"/><rect class="cls-5" x="103.27" y="313.96" width="100.76" height="5" rx="2.5" ry="2.5"/><rect class="cls-5" x="103.68" y="325.19" width="100.76" height="5" rx="2.5" ry="2.5"/><rect class="cls-5" x="103.68" y="336.42" width="100.76" height="5" rx="2.5" ry="2.5"/><circle class="cls-4" cx="305.43" cy="282.25" r="15.5"/><rect class="cls-5" x="254.64" y="313.96" width="100.76" height="5" rx="2.5" ry="2.5"/><rect class="cls-5" x="255.05" y="325.19" width="100.76" height="5" rx="2.5" ry="2.5"/><rect class="cls-5" x="255.05" y="336.42" width="100.76" height="5" rx="2.5" ry="2.5"/><circle class="cls-4" cx="456.61" cy="282.25" r="15.5"/><rect class="cls-5" x="405.82" y="313.96" width="100.76" height="5" rx="2.5" ry="2.5"/><rect class="cls-5" x="406.23" y="325.19" width="100.76" height="5" rx="2.5" ry="2.5"/><rect class="cls-5" x="406.23" y="336.42" width="100.76" height="5" rx="2.5" ry="2.5"/><rect class="cls-2" y="61.06" width="612" height="1" rx=".31" ry=".31"/><circle class="cls-6" cx="14.2" cy="9.06" r="4.5"/><circle class="cls-7" cx="29.06" cy="9.06" r="4.5"/><circle class="cls-8" cx="43.16" cy="9.06" r="4.5"/><rect class="cls-2" x="33.21" y="396.24" width="160" height="90" rx="8" ry="8"/><rect class="cls-2" x="226.05" y="396.24" width="160" height="90" rx="8" ry="8"/><rect class="cls-2" x="414.75" y="396.24" width="160" height="90" rx="8" ry="8"/><rect class="cls-2" x="35.28" y="508.08" width="160" height="90" rx="8" ry="8"/><rect class="cls-2" x="228.12" y="508.08" width="160" height="90" rx="8" ry="8"/><rect class="cls-2" x="416.82" y="508.08" width="160" height="90" rx="8" ry="8"/></svg>