<svg id="Слой_1" data-name="Слой 1" xmlns="http://www.w3.org/2000/svg" viewBox="0 0 120 39"><defs><style>.cls-1{fill:#fff}</style></defs><title>link</title><path class="cls-1" d="M19.5 1A19.5 19.5 0 1 0 39 20.5 19.5 19.5 0 0 0 19.5 1zm-8.4 13.29h17.8a.1.1 0 0 1 .08 0l-8.18 6.8-.34.28a.69.69 0 0 1-.38.11.67.67 0 0 1-.42-.14L11 14.32zm-.1 1l6.13 5.06-6.13 5zm18 11a.1.1 0 0 1-.1.1H11.1a.1.1 0 0 1-.1-.1l6.72-5.43 1.4 1.16a1.46 1.46 0 0 0 1.8 0l1.36-1.12L29 26.22zm0-1l-6.13-4.92L29 15.28z" transform="translate(0 -1)"/><path class="cls-1" d="M59.5 1A19.5 19.5 0 1 0 79 20.5 19.5 19.5 0 0 0 59.5 1zm6.69 21.24q.19.23.91.92a11.13 11.13 0 0 1 2.14 2.47l.07.14a1.4 1.4 0 0 1 .08.3.87.87 0 0 1 0 .38.55.55 0 0 1-.28.31 1.3 1.3 0 0 1-.66.14h-2.86a1.25 1.25 0 0 1-.63-.06 2.72 2.72 0 0 1-.58-.25l-.22-.13a5.26 5.26 0 0 1-.78-.72q-.45-.48-.77-.87a3.71 3.71 0 0 0-.68-.65.71.71 0 0 0-.63-.17h-.09a1 1 0 0 0-.19.16 1.43 1.43 0 0 0-.24.33 2.28 2.28 0 0 0-.19.58 3.68 3.68 0 0 0-.07.87 1.14 1.14 0 0 1 0 .31.74.74 0 0 1-.08.21v.06a.89.89 0 0 1-.59.25h-1.34a5.08 5.08 0 0 1-1.63-.18 6.25 6.25 0 0 1-1.47-.59 13.45 13.45 0 0 1-1.15-.74 6.63 6.63 0 0 1-.79-.64l-.28-.27-.31-.34q-.2-.22-.8-1t-1.18-1.59q-.58-.89-1.37-2.36t-1.46-3a.89.89 0 0 1-.07-.3.36.36 0 0 1 0-.18v-.07a.78.78 0 0 1 .64-.21h3.06a1.19 1.19 0 0 1 .26.07.76.76 0 0 1 .18.1h.06a.74.74 0 0 1 .27.36q.22.56.51 1.16t.46.91l.18.32q.32.67.63 1.16a5.75 5.75 0 0 0 .54.77 2.68 2.68 0 0 0 .46.43.71.71 0 0 0 .38.16.84.84 0 0 0 .3-.06l.06-.06a2.21 2.21 0 0 0 .13-.25 1.81 1.81 0 0 0 .15-.53q.05-.32.11-.91a8.71 8.71 0 0 0 0-1.4 5.19 5.19 0 0 0-.1-.82 2.14 2.14 0 0 0-.16-.51l-.07-.13a1.37 1.37 0 0 0-1-.48q-.15 0 .06-.27a1.51 1.51 0 0 1 .42-.34 7.33 7.33 0 0 1 2.67-.27 7.44 7.44 0 0 1 1.51.15 1.29 1.29 0 0 1 .37.15.6.6 0 0 1 .23.27 1.74 1.74 0 0 1 .12.36 2.58 2.58 0 0 1 0 .51v3.78a1.23 1.23 0 0 0 .13.44.74.74 0 0 0 .25.27H61q.1 0 .29-.12a4.07 4.07 0 0 0 .42-.39 5.79 5.79 0 0 0 .58-.75q.35-.51.76-1.2a18.25 18.25 0 0 0 1.2-2.52.77.77 0 0 1 .11-.2.5.5 0 0 1 .12-.12h.21a.42.42 0 0 1 .22 0h3.22a1.76 1.76 0 0 1 .72 0 .65.65 0 0 1 .35.18l.07.11q.26.72-1.68 3.29l-.73 1a8.44 8.44 0 0 0-1 1.46.86.86 0 0 0 .33.81zM100.5 1A19.5 19.5 0 1 0 120 20.5 19.5 19.5 0 0 0 100.5 1zm.1 15.21a.44.44 0 0 1-.44.44H95a.44.44 0 0 0-.44.44v2a.44.44 0 0 0 .44.44h4.39a.44.44 0 0 1 .44.44v1.29a.44.44 0 0 1-.44.44H95a.44.44 0 0 0-.44.44v4.23a.44.44 0 0 1-.44.44h-1.86a.44.44 0 0 1-.44-.44V14.79a.44.44 0 0 1 .44-.44h7.9a.44.44 0 0 1 .44.44zM111 26.37a.44.44 0 0 1-.44.44h-7.94a.44.44 0 0 1-.44-.44V14.79a.44.44 0 0 1 .44-.44h1.85a.44.44 0 0 1 .44.44V24a.44.44 0 0 0 .44.44h5.21a.44.44 0 0 1 .44.44z" transform="translate(0 -1)"/></svg>