<svg id="Слой_1" xmlns="http://www.w3.org/2000/svg" viewBox="0 0 640 80"><style>.st0{fill:url(#SVGID_1_)}.st1{fill:#fff}.st2{fill:url(#SVGID_2_)}.st3{fill:url(#SVGID_3_)}.st4{fill:url(#SVGID_4_)}.st5{fill:url(#SVGID_5_)}.st6{fill:url(#SVGID_6_)}.st7{fill:url(#SVGID_7_)}.st8{fill:url(#SVGID_8_)}</style><linearGradient id="SVGID_1_" gradientUnits="userSpaceOnUse" x1="11.716" y1="11.716" x2="68.284" y2="68.284"><stop offset=".001" stop-color="#e45126"/><stop offset=".998" stop-color="#c7451e"/></linearGradient><circle class="st0" cx="40" cy="40" r="40"/><path class="st1" d="M24.5 14.1H27v2.4h2.2v-2.4h2.4v7.2h-2.4v-2.4H27v2.4h-2.4v-7.2h-.1zm10.3 2.4h-2.1v-2.4h6.7v2.4h-2.1v4.8h-2.4l-.1-4.8zm5.6-2.4h2.5l1.6 2.5 1.5-2.5h2.5v7.2h-2.4v-3.6l-1.7 2.6-1.7-2.6v3.6h-2.4l.1-7.2zm9.3 0h2.4v4.8h3.4v2.4h-5.8v-7.2zM21 24.6l3.5 38.8L40 67.7l15.6-4.3L59 24.6H21zm30.5 12.7H33.3l.4 4.9H51l-1.3 14.6-9.7 2.7-9.7-2.7-.7-7.5h4.8l.3 3.8 5.3 1.4 5.3-1.4.6-6.2H29.4l-1.3-14.4h23.8l-.4 4.8z"/><linearGradient id="SVGID_2_" gradientUnits="userSpaceOnUse" x1="171.716" y1="11.716" x2="228.284" y2="68.284"><stop offset=".001" stop-color="#edc600"/><stop offset="1" stop-color="#deb900"/></linearGradient><circle class="st2" cx="200" cy="40" r="40"/><path class="st1" d="M207.2 16H204l3.3 3.6v1.7h-6.8v-2h3.3l-3.3-3.6V14h6.7zm-7.9-2v7.3h-5.9v-2.4h3.4V14h2.5zm-18 10.6l3.5 39 15.6 4.3 15.7-4.3 3.5-39h-38.3zm30.2 17.6L210.2 57l-9.8 2.7-9.8-2.7-.7-7.5h4.8l.3 3.8 5.3 1.4 5.3-1.4.6-6.2h-16.4l1.6-17.4h19.1l.9 10.2h-4.8l-.4-4.9-5.8-.3-4.7.1-.7 7.5 16.5-.1z"/><linearGradient id="SVGID_3_" gradientUnits="userSpaceOnUse" x1="91.716" y1="11.716" x2="148.284" y2="68.284"><stop offset=".001" stop-color="#1881cc"/><stop offset=".998" stop-color="#0c67a8"/></linearGradient><circle class="st3" cx="120" cy="40" r="40"/><path class="st1" d="M130.6 16.4h-3.1l3.3 3.5v1.7H124v-2h3.3l-3.3-3.5v-1.7h6.6zm-7.9 0h-3.1l3.2 3.5v1.7h-6.7v-2h3.3l-3.3-3.5v-1.7h6.6zm-7.9.1h-3.3v3.1h3.3v2h-5.7v-7.2h5.7zM101 24.9l3.4 38.6 15.4 4.3 15.5-4.3 3.4-38.6H101zm28.7 30.9l-.1.8-9.7 2.7-9.7-2.7-.7-7.4h4.8l.3 3.8 5.3 1.4 5.3-1.4.6-6.1h-11l-.4-4.7h11.9l.4-4.8h-18.1l-.4-4.7h23.7l-2.2 23.1z"/><linearGradient id="SVGID_4_" gradientUnits="userSpaceOnUse" x1="251.716" y1="11.716" x2="308.284" y2="68.284"><stop offset=".001" stop-color="#587caf"/><stop offset="1" stop-color="#466999"/></linearGradient><circle class="st4" cx="280" cy="40" r="40"/><path class="st1" d="M258.9 33.3h7.4c2.2 0 3.7.6 4.7 1.9 1 1.2 1.3 2.9 1 5-.1 1-.4 1.9-.9 2.9-.4.9-1 1.8-1.8 2.5-.9 1-1.9 1.6-2.9 1.8s-2.1.4-3.2.4h-3.3l-1 5.2H255l3.9-19.7m3.3 3.1l-1.7 8.3h.7c1.8 0 3.2-.2 4.4-.5 1.2-.4 2-1.7 2.4-4 .3-1.9 0-3-1-3.3-1-.3-2.2-.4-3.7-.4h-.6c-.2-.1-.4-.1-.5-.1m14.1-8.4h3.8l-1.1 5.3h3.4c1.9 0 3.3.4 4.2 1.2.9.7 1.2 2.1.8 4.2l-1.8 9.2h-3.9l1.8-8.8c.2-.9.1-1.6-.2-2-.3-.4-.9-.6-1.9-.6h-3.1L276 47.8h-3.8l4.1-19.8m15.3 5.3h7.4c2.2 0 3.7.6 4.7 1.9 1 1.2 1.3 2.9 1 5-.1 1-.4 1.9-.9 2.9-.4.9-1 1.8-1.8 2.5-.9 1-1.9 1.6-2.9 1.8s-2.1.4-3.2.4h-3.3l-1 5.2h-3.8l3.8-19.7m3.2 3.1l-1.7 8.3h.7c1.8 0 3.2-.2 4.4-.5 1.2-.4 2-1.7 2.4-4 .3-1.9 0-3-1-3.3-1-.3-2.2-.4-3.7-.4h-.6c-.1-.1-.3-.1-.5-.1"/><linearGradient id="SVGID_5_" gradientUnits="userSpaceOnUse" x1="331.716" y1="11.716" x2="388.284" y2="68.284"><stop offset=".001" stop-color="#178fe5"/><stop offset=".999" stop-color="#0873bf"/></linearGradient><circle class="st5" cx="360" cy="40" r="40"/><path class="st1" d="M342.6 29.5c-3.6 5.1-3.2 11.7-.6 17.2.1.1.1.3.2.4 0 .1.1.2.1.2s0 .1.1.1c0 .1.1.2.1.3.1.2.2.3.3.4 0 .1.1.2.1.2.1.2.2.3.3.5 0 .1.1.1.1.2.1.2.3.4.4.6 0 0 0 .1.1.1.1.2.3.4.4.5.1.1.1.1.1.2.1.2.2.3.4.5 0 .1.1.1.1.2.2.2.3.4.5.6.2.2.3.4.5.6l.2.2.4.4.2.2c.2.2.4.4.6.5l.1.1c.2.2.3.3.5.4l.2.2c.1.1.3.2.4.3l.2.2c.2.1.3.2.5.4.1 0 .1.1.2.1.2.1.3.2.5.3.1 0 .1.1.2.1.2.2.5.3.7.5.1 0 .1.1.2.1.2.1.4.2.5.3.1.1.2.1.3.2.1.1.3.1.4.2h.1s.1.1.2.1l.6.3s.1 0 .1.1c.2.1.5.2.7.3.1 0 .1 0 .2.1.2.1.5.2.7.3h.1c.3.1.5.2.8.3.1 0 .1 0 .2.1.3.1.5.2.8.2 17.1 3.3 22.3-10.1 22.3-10.1-4.2 5.4-11.7 6.8-18.7 5.1-.3-.1-.5-.2-.8-.2-.1 0-.1 0-.2-.1-.2-.1-.5-.2-.8-.3h-.1c-.2-.1-.4-.2-.7-.3-.1 0-.1 0-.2-.1-.2-.1-.5-.2-.7-.3-.1 0-.1 0-.1-.1l-.6-.3c-.1 0-.1-.1-.2-.1-.2-.1-.3-.2-.5-.2-.1-.1-.2-.1-.3-.2l-.6-.3c-.1 0-.1-.1-.2-.1-.2-.1-.5-.3-.7-.5-.1 0-.1-.1-.2-.1-.2-.1-.3-.2-.5-.4-.1 0-.1-.1-.2-.1-.2-.1-.3-.2-.5-.4l-.2-.2c-.2-.1-.3-.2-.4-.4l-.2-.2c-.2-.2-.4-.3-.6-.5l-.1-.1c-.2-.2-.4-.4-.6-.5l-.2-.2-.4-.4-.2-.2c-.2-.2-.3-.4-.5-.5-.2-.2-.3-.4-.5-.6 0-.1-.1-.1-.1-.2-.1-.2-.2-.3-.4-.5 0-.1-.1-.1-.1-.2-.2-.2-.3-.4-.4-.6-3.8-5.4-5.2-12.8-2-18.8"/><path class="st1" d="M353.6 25.3c-2.6 3.7-2.5 8.6-.6 12.5.3.7.7 1.3 1.1 1.9.4.6.8 1.2 1.3 1.7l.6.6c.1 0 .1.1.2.2l.6.6c.2.2.4.4.7.6.1 0 .1.1.2.1.2.2.5.4.7.5.1.1.2.2.3.2.1 0 .1.1.2.1.2.1.4.2.5.3h.1c.2.1.3.2.5.3.1 0 .1.1.2.1.1.1.2.1.3.2.2.1.5.2.7.3 0 0 .1 0 .2.1.2.1.4.2.6.2.1 0 .2.1.2.1.2.1.3.1.5.2.1 0 .2.1.2.1.2.1.5.2.7.2 13.2 2.3 16.4-7.8 16.4-7.8-2.8 3.9-8.2 5.8-13.8 4.2-.2-.1-.5-.1-.7-.2-.1 0-.2 0-.2-.1-.2-.1-.4-.1-.5-.2-.1 0-.2-.1-.2-.1-.2-.1-.4-.2-.6-.2 0 0-.1 0-.2-.1-.2-.1-.5-.2-.7-.3-.1-.1-.2-.1-.4-.2-.1 0-.1-.1-.2-.1-.2-.1-.3-.2-.4-.2 0 0-.1 0-.1-.1-.2-.1-.4-.2-.5-.3 0 0-.1-.1-.2-.1-.1-.1-.2-.2-.3-.2-.2-.2-.5-.4-.7-.5-.1 0-.1-.1-.2-.1-2.5-2-4.4-4.7-5.3-7.8-1-3.2-.7-6.7 1-9.6"/><path class="st1" d="M362.7 22.2c-1.5 2.2-1.7 5-.6 7.4 1.1 2.6 3.4 4.7 6 5.6.1 0 .2.1.3.1h.1c.2 0 .3.1.5.1 7.3 1.4 9.3-3.8 9.8-4.5-1.7 2.5-4.7 3.1-8.2 2.2l-.9-.3c-.3-.1-.7-.3-1-.4-.6-.3-1.2-.7-1.8-1.1-3.2-2.4-5.2-7.1-3.1-10.9"/><linearGradient id="SVGID_6_" gradientUnits="userSpaceOnUse" x1="411.716" y1="11.716" x2="468.284" y2="68.284"><stop offset=".001" stop-color="#d34a47"/><stop offset=".999" stop-color="#ba2f2d"/></linearGradient><circle class="st6" cx="440" cy="40" r="40"/><path class="st1" d="M432.6 31.4c.2-.3.3-.6.3-1.1 0-.2 0-.4-.1-.6 0-.2-.1-.4-.3-.6-.6-1-1.3-1.6-2-2.1-.7-.4-1.5-.6-2.3-.6-.7 0-1.4.1-2.1.4-.7.3-1.4.7-2.1 1.2-.7.5-1.3 1.1-2 1.9-.6.7-1.2 1.5-1.8 2.4-.6.9-1.1 1.8-1.6 2.7-.5 1-.9 2-1.3 3s-.7 2-.9 3.1c-.2 1-.4 2-.4 3v.4c0 .5.1 1.1.2 1.6s.3 1 .6 1.4c.3.4.6.8 1.1 1 .4.3.9.4 1.5.4.5 0 1.1-.1 1.6-.4.6-.3 1.1-.6 1.7-1 .6-.4 1.1-.9 1.6-1.4l1.5-1.5c-.2.5-.3 1-.5 1.6-.2.6-.4 1.2-.5 1.8s-.3 1.1-.4 1.5c-.1.4-.2.8-.2.9v.4c0 .5.1.8.2 1 .1.2.3.3.6.3.2 0 .3-.1.5-.2s.3-.3.4-.4l.3-.6c.1-.2.2-.4.2-.5 0-.1.1-.2.1-.5.1-.3.2-.6.3-1 .1-.4.2-.9.4-1.4.1-.5.3-1 .5-1.5s.3-1 .5-1.5c.1-.5.3-1 .4-1.4.1-.4.2-.7.3-1 .1-.3.2-.4.2-.5.2-.4.3-.9.5-1.3s.3-.8.4-1.2l.3-1.2c.1-.4.1-.9.1-1.4 0-.2 0-.3-.1-.5s-.1-.2-.2-.3c-.1-.1-.2-.2-.3-.2-.1 0-.2-.1-.4-.1s-.5.1-.7.2c-.2.2-.4.4-.6.8l-1.2 3.6c-.1.3-.4.7-.7 1.1-.3.4-.6.8-1 1.3-.4.4-.8.9-1.2 1.3-.4.4-.9.8-1.3 1.2-.4.3-.9.6-1.3.8-.4.2-.8.3-1.1.3-.3 0-.5-.1-.7-.2-.2-.2-.3-.4-.4-.6-.1-.2-.2-.5-.2-.8 0-.3-.1-.6-.1-.9 0-.9.1-1.8.4-2.9s.7-2.2 1.1-3.3c.5-1.1 1-2.2 1.6-3.2.6-1.1 1.3-2 1.9-2.8.7-.8 1.3-1.5 2-2s1.3-.7 1.9-.7c.4 0 .7.1 1.1.3.3.2.6.6.9 1.1.3.5.6 1 .8 1.2.2.3.5.4.8.4.7.1 1 0 1.2-.2zm32.6 9.7c-.1-.2-.2-.3-.4-.3-.1 0-.2 0-.3.1s-.2.1-.3.2c-1.1 1-2.1 1.9-2.9 2.5-.8.7-1.4 1.2-1.9 1.6s-.9.7-1.2.8c-.3.2-.5.2-.6.2-.2 0-.3 0-.4-.1s-.1-.2-.1-.3c0-.1.1-.3.3-.5.2-.3.5-.6.8-.9.3-.4.7-.8 1-1.2.4-.5.7-.9 1-1.4.3-.5.6-1 .8-1.4.2-.5.3-.9.3-1.3 0-.3-.1-.6-.2-.8-.1-.2-.3-.4-.5-.6-.2-.2-.5-.3-.7-.4s-.6-.1-.8-.1c-.4 0-.8.1-1.2.3-.4.2-.8.4-1.2.7-.4.3-.8.6-1.1.9-.4.3-.7.7-1 1 0-.1.1-.2.1-.3 0-.1.1-.3.1-.4 0-.1 0-.3.1-.4v-.3c0-.3-.1-.5-.2-.7s-.4-.2-.7-.2c-.2 0-.4.1-.6.4-.2.2-.4.5-.5.8-.2.3-.3.7-.4 1-.1.3-.2.6-.3.8-.1.4-.2.8-.4 1.3-.1 0-.1.1-.2.1l-.8.8c-.3.3-.6.6-1 .9-.3.3-.7.6-1 .8-.3.3-.7.5-1 .7-.3.2-.6.4-.9.5-.3.1-.5.2-.7.2-.1 0-.2 0-.3-.1-.1-.1-.1-.2-.1-.4s0-.5.1-.8c.1-.3.2-.6.3-.8.2-.5.5-1.2.8-1.9.3-.7.6-1.5 1-2.4.3-.8.7-1.7 1-2.6s.7-1.7 1-2.5c.3-.8.7-1.6 1-2.3.3-.7.5-1.3.8-1.7.1-.2.2-.5.3-.7s.1-.4.1-.6c0-.4-.1-.7-.3-.8-.2-.2-.5-.3-.7-.3-.3 0-.5.1-.8.2-.3.2-.5.4-.6.8l-3.9 9.8c-.3.6-.5 1.4-.8 2.1l-.9 2.4c-.2.4-.3.9-.4 1.4l-.3.3c-.4.3-.8.6-1.2.8-.4.2-.7.3-1 .3-.4 0-.6-.2-.6-.5 0-.4.1-.8.2-1.3s.3-.9.4-1.4c.2-.5.4-1 .6-1.4.2-.5.4-.9.6-1.3.2-.4.3-.8.4-1.1.1-.3.2-.6.2-.8 0-.3-.1-.6-.3-.8-.2-.2-.4-.3-.7-.3-.3 0-.5.1-.7.3-.2.2-.4.5-.5.8-.1.3-.3.7-.4 1.1-.1.4-.3.8-.4 1.1-.2.5-.5 1.1-.9 1.7-.3.6-.7 1.2-1.2 1.8s-.9 1-1.4 1.4c-.5.4-1 .5-1.6.5-.2 0-.3-.1-.4-.2-.1-.2-.1-.3-.1-.5 0-.4.1-.9.2-1.3.1-.5.3-.9.5-1.4.2-.4.4-.9.6-1.3l.6-1.2c.2-.4.4-.7.5-1 .1-.3.2-.5.3-.7v-.3c0-.2 0-.3-.1-.4l-.3-.3c-.1-.1-.2-.1-.4-.2-.1 0-.3-.1-.4-.1-.3 0-.5.1-.8.3-.2.2-.4.4-.6.8-.7 1.5-1.2 2.7-1.6 3.7-.4 1-.7 1.9-.9 2.5-.2.6-.3 1.1-.3 1.4s-.1.5-.1.5c0 .4.1.8.2 1.1.1.3.3.5.5.7.2.2.4.3.7.4s.5.1.8.1c.6 0 1.2-.1 1.7-.3.5-.2 1-.5 1.4-.8s.8-.7 1.1-1.1.6-.8.8-1.2c-.1.6-.2 1.2-.2 1.6 0 .7.1 1.1.4 1.4.3.3.6.4 1 .4s.9-.1 1.4-.3c.5-.2 1-.5 1.6-.9.2-.1.3-.2.5-.3 0 .1 0 .2.1.3.1.3.2.5.3.7s.3.3.6.5c.2.1.5.2.9.2.5 0 1-.1 1.6-.4.5-.2 1.1-.6 1.6-1 .6-.4 1.1-.9 1.7-1.4l.1-.1-.3.6c-.4 1-.9 2-1.4 3-.5 1-1 2-1.4 3.1-.1.2-.1.4-.2.6-.1.2-.2.4-.2.6-.1.2-.1.4-.2.6-.1.2-.1.4-.1.6 0 .4.1.7.3.8.2.1.5.2.8.2.2 0 .5-.1.6-.2.2-.1.4-.2.5-.4.2-.2.3-.4.4-.6.1-.2.2-.5.3-.7 0-.1.1-.3.2-.5.1-.3.2-.5.3-.9.1-.3.3-.7.4-1.1.1-.4.3-.7.4-1.1l.3-.9c.1-.3.2-.4.2-.5 0-.1.1-.2.2-.4l.3-.6c.1-.2.2-.5.3-.8.1-.3.2-.5.4-.8.1-.3.2-.5.3-.7.1-.2.2-.4.2-.5.2-.4.4-.7.6-1.2.2-.4.5-.8.8-1.3.3-.4.6-.8 1-1.2.3-.4.7-.7 1-1 .4-.3.7-.5 1.1-.7.4-.2.7-.3 1.1-.3.2 0 .3 0 .4.1.1.1.1.2.1.3 0 .2-.1.5-.3.8-.2.3-.5.7-.8 1.1-.3.4-.7.8-1 1.2s-.7.9-1 1.3c-.3.4-.6.8-.8 1.2-.2.4-.4.7-.4 1v.2c0 .5.2.9.5 1.2.4.3.9.4 1.5.4.7 0 1.3-.1 2-.4.6-.3 1.2-.6 1.9-1.1.6-.5 1.3-1.1 2-1.7.7-.7 1.5-1.4 2.5-2.2.2-.2.4-.4.5-.7.1-.3.2-.5.2-.8-.7-.1-.7-.3-.8-.5z"/><linearGradient id="SVGID_7_" gradientUnits="userSpaceOnUse" x1="491.716" y1="11.716" x2="548.284" y2="68.284"><stop offset="0" stop-color="#08c"/><stop offset=".999" stop-color="#006799"/></linearGradient><circle class="st7" cx="520" cy="40" r="40"/><path class="st1" d="M542.1 40.9c0-2.3-.4-4.5-1-6.5l-9.8 25.4c6.4-3.8 10.8-10.8 10.8-18.9zm-28.9 20.8c2.2.7 4.5 1.1 6.9 1.1 2.5 0 5-.4 7.2-1.2l-6.7-17.3-7.4 17.4zm-14.1-27c-.6 2-.9 4-.9 6.2 0 8.2 4.5 15.4 11.2 19.1l-10.2-25.2-.1-.1z"/><path class="st1" d="M510.3 33.3h-.9c-2.1 0-1.8 2.1-1.8 2.1l7.3 18.3 4.9-11.7-2.7-7c-1.1-1.8-3.8-1.8-3.8-1.8v-1h15.3v1.1l-1.6.1c-2 0-1.6 1.9-1.6 1.9L532 53l1.9-4.9c3.4-7.7 1.3-13.3 1.3-13.3-3.4-7 .9-8 .9-8 .3 0 .5-.1.8-.1-4-4.7-10-7.7-16.7-7.7-9 0-16.8 5.5-20.2 13.3l10.3-.1v1.1z"/><linearGradient id="SVGID_8_" gradientUnits="userSpaceOnUse" x1="571.716" y1="11.716" x2="628.284" y2="68.284"><stop offset="0" stop-color="#f05133"/><stop offset=".999" stop-color="#c2371b"/></linearGradient><circle class="st8" cx="600" cy="40" r="40"/><path class="st1" d="M592.2 26.1c.1.1.1.2.2.3l4.5 4.5c.1.1.2.2.1.4-.5 1.6.2 3.3 1.7 4 .2.1.2.2.2.4v11.4c0 .2 0 .3-.2.4-1.3.6-2 1.9-1.8 3.5.2 1.5 1.3 2.6 2.8 2.9 1.9.3 3.7-1.1 3.9-2.9.1-1.5-.4-2.6-1.7-3.3-.1-.1-.2-.2-.2-.3V35.8l.2.2 4.1 4.1c.1.1.1.2.1.4-.7 2 .6 4 2.7 4.4 1.9.3 3.7-1 3.9-3 .2-1.6-.9-3.4-2.9-3.7-.4-.1-.9 0-1.4.1-.1 0-.2 0-.3-.1l-4.5-4.5c-.1-.1-.1-.2-.1-.3.5-2-.7-4-2.8-4.2-.4-.1-.9.1-1.3.1-.1 0-.2 0-.3-.1l-4.8-4.8s0-.1-.1-.1l.2-.2 3.7-3.7c1.1-1.1 2.9-1.1 4 0l19 19c1.1 1.1 1.1 2.9 0 4l-18.9 18.9c-1.1 1.1-2.9 1.1-4 0l-19-19c-1.1-1.1-1.1-2.9 0-4l12.9-12.9c0-.2 0-.2.1-.3z"/></svg>